<?xml version="1.0" encoding="UTF-8"?>
<svg xmlns="http://www.w3.org/2000/svg" width="980" height="340" viewBox="0 0 980 340" role="img" aria-labelledby="title desc">
  <title id="title">NiladriHazra GitHub signal</title>
  <desc id="desc">Public GitHub stats and top repositories generated from the GitHub API.</desc>
  <style>
    text { font-family: -apple-system, BlinkMacSystemFont, "Segoe UI", Arial, sans-serif; }
  </style>

  <rect width="980" height="340" rx="8" fill="#0d1117"/>
  <rect x="1" y="1" width="978" height="338" rx="8" fill="none" stroke="#30363d"/>
  <rect x="26" y="27" width="928" height="286" rx="8" fill="#0d1117" stroke="#30363d"/>
  <rect x="52" y="106" width="316" height="1" fill="#30363d"/>

  <text x="52" y="70" fill="#f0f6fc" font-size="24" font-weight="750">Overview</text>
  <text x="52" y="96" fill="#8b949e" font-size="13">public repos, stars, forks, and PRs</text>

  
    <rect x="52" y="126" width="148" height="74" rx="6" fill="#161b22" stroke="#30363d"/>
    <text x="70" y="154" fill="#8b949e" font-size="13">public stars</text>
    <text x="70" y="182" fill="#f0f6fc" font-size="25" font-weight="700">1.1K</text>
  
  
    <rect x="216" y="126" width="148" height="74" rx="6" fill="#161b22" stroke="#30363d"/>
    <text x="234" y="154" fill="#8b949e" font-size="13">public PRs</text>
    <text x="234" y="182" fill="#f0f6fc" font-size="25" font-weight="700">44</text>
  
  
    <rect x="52" y="214" width="148" height="74" rx="6" fill="#161b22" stroke="#30363d"/>
    <text x="70" y="242" fill="#8b949e" font-size="13">own repos</text>
    <text x="70" y="270" fill="#f0f6fc" font-size="25" font-weight="700">31</text>
  
  
    <rect x="216" y="214" width="148" height="74" rx="6" fill="#161b22" stroke="#30363d"/>
    <text x="234" y="242" fill="#8b949e" font-size="13">total forks</text>
    <text x="234" y="270" fill="#f0f6fc" font-size="25" font-weight="700">216</text>
  

  <text x="52" y="304" fill="#8b949e" font-size="13">top repo</text>
  <text x="114" y="304" fill="#f0f6fc" font-size="14" font-weight="700">Open-Fiesta</text>
  <text x="928" y="96" text-anchor="end" fill="#8b949e" font-size="13">stars / forks / stack</text>
  <text x="458" y="112" fill="#f0f6fc" font-size="19" font-weight="750">Repos with traction</text>
  <text x="690" y="112" text-anchor="end" fill="#8b949e" font-size="12">stars</text>
  <text x="770" y="112" text-anchor="end" fill="#8b949e" font-size="12">forks</text>
  <text x="820" y="112" fill="#8b949e" font-size="12">stack</text>

  
    <rect x="458" y="128" width="470" height="42" rx="6" fill="#161b22" stroke="#30363d"/>
    <text x="478" y="154" fill="#f0f6fc" font-size="15" font-weight="650">Open-Fiesta</text>
    <text x="690" y="154" text-anchor="end" fill="#f0f6fc" font-size="15" font-weight="700">963</text>
    <text x="770" y="154" text-anchor="end" fill="#c9d1d9" font-size="15" font-weight="650">191</text>
    <text x="820" y="154" fill="#8b949e" font-size="14">TypeScript</text>
  

    <rect x="458" y="171" width="470" height="42" rx="6" fill="#0d1117" stroke="#30363d"/>
    <text x="478" y="197" fill="#f0f6fc" font-size="15" font-weight="650">WhatToBuild</text>
    <text x="690" y="197" text-anchor="end" fill="#f0f6fc" font-size="15" font-weight="700">75</text>
    <text x="770" y="197" text-anchor="end" fill="#c9d1d9" font-size="15" font-weight="650">12</text>
    <text x="820" y="197" fill="#8b949e" font-size="14">TypeScript</text>
  

    <rect x="458" y="214" width="470" height="42" rx="6" fill="#161b22" stroke="#30363d"/>
    <text x="478" y="240" fill="#f0f6fc" font-size="15" font-weight="650">Slop-Detect</text>
    <text x="690" y="240" text-anchor="end" fill="#f0f6fc" font-size="15" font-weight="700">11</text>
    <text x="770" y="240" text-anchor="end" fill="#c9d1d9" font-size="15" font-weight="650">0</text>
    <text x="820" y="240" fill="#8b949e" font-size="14">JavaScript</text>
  

    <rect x="458" y="257" width="470" height="42" rx="6" fill="#0d1117" stroke="#30363d"/>
    <text x="478" y="283" fill="#f0f6fc" font-size="15" font-weight="650">clean-image</text>
    <text x="690" y="283" text-anchor="end" fill="#f0f6fc" font-size="15" font-weight="700">8</text>
    <text x="770" y="283" text-anchor="end" fill="#c9d1d9" font-size="15" font-weight="650">0</text>
    <text x="820" y="283" fill="#8b949e" font-size="14">TypeScript</text>
  
</svg>
